HIERARCHY
ROOT root     
{
	OFFSET 0.0000 0.0000 0.0000
	CHANNELS 6 Xposition Yposition Zposition Zrotation Yrotation Xrotation
	JOINT pelvis   
	{
		OFFSET 0.0000 0.0000 0.0000
		CHANNELS 3 Zrotation Yrotation Xrotation
		JOINT thorax   
		{
			OFFSET 0.0000 23.0750 -5.0000
			CHANNELS 3 Zrotation Yrotation Xrotation
			JOINT rclavicle
			{
				OFFSET 0.0000 28.0009 0.0000
				CHANNELS 3 Zrotation Yrotation Xrotation
				JOINT rhumerus 
				{
					OFFSET -18.5725 5.5939 0.0000
					CHANNELS 3 Zrotation Yrotation Xrotation
					JOINT rradius  
					{
						OFFSET -24.8459 0.0000 0.0000
						CHANNELS 3 Zrotation Yrotation Xrotation
						JOINT rhand    
						{
							OFFSET -24.5477 0.0000 0.0000
							CHANNELS 3 Zrotation Yrotation Xrotation
							End Site
							{
								OFFSET -8.1826 0.0000 0.0000
							}
						}
					}
				}
			}
			JOINT lclavicle
			{
				OFFSET 0.0000 28.0009 0.0000
				CHANNELS 3 Zrotation Yrotation Xrotation
				JOINT lhumerus 
				{
					OFFSET 18.5725 5.5939 0.0000
					CHANNELS 3 Zrotation Yrotation Xrotation
					JOINT lradius  
					{
						OFFSET 24.8459 0.0000 0.0000
						CHANNELS 3 Zrotation Yrotation Xrotation
						JOINT lhand    
						{
							OFFSET 24.5477 0.0000 0.0000
							CHANNELS 3 Zrotation Yrotation Xrotation
							End Site
							{
								OFFSET 8.1826 0.0000 0.0000
							}
						}
					}
				}
			}
			JOINT head     
			{
				OFFSET 0.0000 35.2030 0.0000
				CHANNELS 3 Zrotation Yrotation Xrotation
				End Site
				{
					OFFSET 0.0000 11.7343 0.0000
				}
			}
		}
		JOINT rfemur   
		{
			OFFSET -8.2817 0.0000 0.0000
			CHANNELS 3 Zrotation Yrotation Xrotation
			JOINT rtibia   
			{
				OFFSET 0.0000 -43.3627 0.0000
				CHANNELS 3 Zrotation Yrotation Xrotation
				JOINT rfoot    
				{
					OFFSET 0.0000 -38.2947 0.0000
					CHANNELS 3 Zrotation Yrotation Xrotation
					JOINT rtoes    
					{
						OFFSET 0.0000 0.0000 16.6054
						CHANNELS 3 Zrotation Yrotation Xrotation
						End Site
						{
							OFFSET 0.0000 0.0000 5.5351
						}
					}
				}
			}
		}
		JOINT lfemur   
		{
			OFFSET 8.2817 0.0000 0.0000
			CHANNELS 3 Zrotation Yrotation Xrotation
			JOINT ltibia   
			{
				OFFSET 0.0000 -43.3627 0.0000
				CHANNELS 3 Zrotation Yrotation Xrotation
				JOINT lfoot    
				{
					OFFSET 0.0000 -38.2947 0.0000
					CHANNELS 3 Zrotation Yrotation Xrotation
					JOINT ltoes    
					{
						OFFSET 0.0000 0.0000 16.6054
						CHANNELS 3 Zrotation Yrotation Xrotation
						End Site
						{
							OFFSET 0.0000 0.0000 5.5351
						}
					}
				}
			}
		}
	}
}
MOTION
Frames: 19
Frame Time: .0333333
-22.327 75.93 1.447 -174.95 -85.0514 -158.65 0 -0 0 -0.84375 9.2391 15.1255 8.93387 -10.5187 4.32847e-06 43.9651 -9.49185 13.9246 180 72.2709 180 -2.73561 2.76069 -0.065897 -10.4779 24.626 7.89605e-06 -50.1928 36.6872 27.372 -1.21146e-06 -77.2837 1.51521e-06 -10.5247 3.62836 -0.334297 -0.747563 -4.00109 -15.7971 1.13995 -12.3296 -7.94086 -0 -0 38.4045 -4.44908e-06 10.6198 -4.42322 -0.828483 -1.51158e-06 -76.2195 -18.201 6.5664 -67.4105 -0 -0 19.7487 9.4481e-07 10.8564 0.148606 0.0284998 -1.41864e-07 -27.2046 
-23.738 75.555 1.2815 -173.269 -85.0032 -160.072 0 -0 0 -1.56809 9.27953 14.3594 9.21858 -10.7249 6.67686e-06 44.4157 -9.75831 14.3308 -180 72.2074 -180 -2.30427 2.906 -0.0584989 -10.4635 24.7256 -7.20631e-05 -50.4981 36.4434 26.883 0 -77.0124 0 -10.7323 3.48335 -0.327307 -0.404186 -3.96056 -16.169 1.0248 -11.9489 -7.02232 -0 -0 37.8504 2.01369e-06 11.0353 -3.32594 -0.648302 -5.15272e-06 -77.9769 -17.3244 6.10084 -68.4173 -0 -0 22.1473 4.52498e-06 11.725 1.70493 0.353796 -2.50373e-06 -24.958 
-25.123 75.18 1.1186 -171.941 -84.9873 -161.06 0 -0 0 -2.33599 9.28262 13.564 9.53122 -10.9131 4.54643e-06 44.9207 -10.0503 14.6758 180 72.1863 180 -1.9183 3.01574 -0.0504993 -10.4639 24.7786 3.62686e-05 -50.791 36.1196 26.3505 -1.15451e-06 -76.7304 1.45841e-06 -10.9165 3.35534 -0.3207 -0.0417137 -3.91367 -16.5696 0.903656 -11.5481 -6.25798 -0 -0 37.3998 1.28135e-05 11.4874 -2.19076 -0.445109 -2.40092e-06 -79.6568 -16.5363 5.66148 -69.6463 -0 -0 24.8508 -1.92621e-05 12.5187 3.42044 0.758985 -1.16081e-07 -22.2922 
-26.485 74.808 0.9586 -170.954 -84.9697 -161.668 0 -0 0 -3.13935 9.25114 12.7756 9.87512 -11.072 8.86581e-06 45.4803 -10.3676 14.9476 180 72.2121 180 -1.59312 3.08923 -0.0430011 -10.4885 24.7816 1.78491e-05 -51.0613 35.7084 25.7791 1.43165e-06 -76.4521 -1.12767e-06 -11.0571 3.24631 -0.314305 0.331088 -3.86473 -17.0025 0.7731 -11.1094 -5.63242 -0 -0 37.0588 -7.44579e-07 11.9695 -1.0188 -0.215998 6.33015e-06 -81.2141 -15.8408 5.26448 -71.0327 -0 -0 27.7686 2.10726e-06 13.1932 5.1954 1.21607 -6.94081e-06 -19.3501 
-27.825 74.447 0.8017 -170.272 -84.9759 -161.938 0 -0 0 -3.96332 9.19329 12.0258 10.2527 -11.1971 6.2622e-06 46.0885 -10.7027 15.1369 180 72.2819 180 -1.34236 3.12635 -0.0365983 -10.5403 24.7344 4.11257e-05 -51.3107 35.1905 25.186 -3.55159e-07 -76.1711 9.42554e-07 -11.1386 3.15404 -0.307598 0.700896 -3.82015 -17.468 0.637004 -10.606 -5.12882 -0 -0 36.8287 1.46456e-07 12.4531 0.175005 0.0385998 -9.40568e-08 -82.5903 -15.2342 4.91828 -72.5071 -0 -0 30.8027 2.55123e-05 13.7169 6.91133 1.68233 6.05903e-06 -16.3661 
-29.143 74.102 0.6496 -169.938 -85.0041 -161.846 0 -0 0 -4.80448 9.1114 11.3465 10.6667 -11.2775 -3.91853e-06 46.7472 -11.0483 15.2338 180 72.4076 180 -1.17397 3.13372 -0.0320995 -10.6338 24.6278 -2.44831e-05 -51.5292 34.5637 24.5719 0 -75.8915 0 -11.1496 3.08005 -0.300702 1.05639 -3.78124 -17.9592 0.489994 -10.0297 -4.73452 -0 -0 36.719 -1.09538e-05 12.9349 1.40885 0.323599 -2.10734e-06 -83.7809 -14.7028 4.61223 -73.9938 -0 -0 33.8644 -9.04066e-06 14.0905 8.44971 2.1123 6.41025e-06 -13.6228 
-30.442 73.779 0.5044 -169.966 -85.0447 -161.404 0 -0 0 -5.65684 9.0088 10.7632 11.1165 -11.306 -8.32031e-08 47.4605 -11.3906 15.233 180 72.5994 180 -1.09141 3.11918 -0.0297004 -10.7757 24.46 1.05482e-05 -51.7124 33.8191 23.9458 -1.05325e-06 -75.6127 1.3575e-06 -11.0838 3.0242 -0.293503 1.38452 -3.74796 -18.4694 0.328996 -9.37889 -4.44077 -0 -0 36.7436 2.71284e-06 13.4083 2.70047 0.643495 6.61308e-07 -84.7803 -14.242 4.33927 -75.4204 -0 -0 36.8785 -4.98862e-06 14.3252 9.68908 2.46095 8.84028e-06 -11.2899 
-31.72 73.484 0.3682 -170.399 -85.0861 -160.588 0 -0 0 -6.5135 8.88971 10.298 11.5991 -11.2767 -2.56853e-05 48.2341 -11.7113 15.1292 -180 72.8775 -180 -1.0926 3.09249 -0.0295 -10.9737 24.225 -6.6855e-05 -51.854 32.9516 23.3143 0 -75.3364 0 -10.9442 2.98612 -0.286098 1.67118 -3.71873 -18.9794 0.153088 -8.66069 -4.24188 -0 -0 36.912 -1.31912e-05 13.8692 4.07145 1.0044 4.8541e-07 -85.5885 -13.8525 4.09249 -76.7293 -0 -0 39.7919 -3.23206e-05 14.44 10.5237 2.69263 -3.52621e-06 -9.41185 
-32.978 73.222 0.2422 -171.22 -85.1325 -159.421 0 -0 0 -7.36525 8.75789 9.96424 12.1053 -11.1863 1.80345e-05 49.0748 -11.9907 14.9248 180 73.2539 180 -1.17091 3.06415 -0.0313009 -11.2304 23.9207 -5.39738e-05 -51.947 31.9595 22.6877 0 -75.0523 -0 -10.7402 2.9663 -0.278899 1.90282 -3.68928 -19.472 -0.0357012 -7.88991 -4.13629 -0 -0 37.2424 -1.99331e-05 14.3183 5.54478 1.41279 -1.09448e-05 -86.1995 -13.5352 3.86857 -77.8736 -0 -0 42.5593 -4.8084e-05 14.464 10.8809 2.78766 -6.49276e-06 -7.94877 
-34.216 72.997 0.1267 -172.358 -85.1646 -157.99 0 -0 0 -8.20027 8.61833 9.76913 12.6237 -11.0378 -3.935e-05 49.9904 -12.2024 14.6262 -180 73.7586 -180 -1.31591 3.04302 -0.0350005 -11.5383 23.5541 -6.51837e-05 -51.9964 30.8313 22.0806 0 -74.7429 -0 -10.4879 2.96495 -0.272202 2.06614 -3.65564 -19.92 -0.230692 -7.08529 -4.12002 -0 -0 37.7384 -2.25747e-05 14.7437 7.12762 1.87031 -1.59809e-05 -86.6277 -13.2877 3.66565 -78.8237 -0 -0 45.1522 -8.47218e-07 14.4345 10.7441 2.7472 3.55704e-06 -6.92758 
-35.433 72.812 0.0219 -173.755 -85.2118 -156.342 0 -0 0 -9.00997 8.47142 9.70852 13.1357 -10.8205 5.80638e-05 50.9923 -12.3353 14.2387 180 74.4187 180 -1.51517 3.03929 -0.0401993 -11.9141 23.1057 -8.3522e-05 -51.9879 29.6084 21.4681 -9.61372e-07 -74.4237 1.26603e-06 -10.2032 2.98652 -0.266707 2.15165 -3.60581 -20.2937 -0.432794 -6.28433 -4.20445 -0 -0 38.427 -2.07762e-05 15.1814 8.86923 2.39563 2.09026e-05 -86.7409 -13.1061 3.48549 -79.5588 -0 -0 47.5483 3.65621e-05 14.3829 10.099 2.57453 6.10773e-07 -5.9599 
-36.629 72.667 -0.0732 -175.26 -85.228 -154.649 0 -0 0 -9.78031 8.3226 9.77622 13.6265 -10.5504 -1.48875e-05 52.0794 -12.3586 13.7821 180 75.2576 180 -1.75621 3.05548 -0.0467997 -12.3265 22.6043 0.000109167 -51.9353 28.2582 20.8813 -9.3599e-07 -74.0581 1.24079e-06 -9.9093 3.03061 -0.262797 2.15171 -3.53672 -20.5666 -0.629901 -5.50857 -4.38244 -0 -0 39.2939 -6.85768e-05 15.5896 10.7354 2.97521 -3.55463e-06 -86.6096 -12.9758 3.32925 -80.0716 -0 -0 49.7241 1.2757e-05 14.3464 9.04104 2.30148 -7.04761e-07 -5.34791 
-37.803 72.562 -0.1596 -176.744 -85.235 -153.027 0 -0 0 -10.502 8.1718 9.95614 14.0773 -10.229 1.27494e-05 53.2533 -12.2604 13.2715 -180 76.2869 -180 -2.02784 3.09375 -0.0548019 -12.7764 22.0488 -7.34635e-05 -51.84 26.8082 20.3062 -9.08812e-07 -73.6515 1.21375e-06 -9.6261 3.10057 -0.261101 2.06386 -3.43927 -20.7115 -0.816805 -4.79077 -4.66117 -0 -0 40.3442 0.000154514 15.9632 12.7197 3.60364 3.96384e-05 -86.1012 -12.8849 3.20208 -80.3696 -0 -0 51.6709 2.16785e-06 14.3451 7.65236 1.95041 1.37777e-06 -4.93401 
-38.954 72.497 -0.2387 -178.064 -85.2132 -151.619 0 -0 0 -11.1689 8.01702 10.2279 14.4754 -9.8642 -7.83514e-05 54.5095 -12.0316 12.726 180 77.5258 180 -2.32279 3.15103 -0.0639 -13.2469 21.4485 -5.64437e-05 -51.7079 25.269 19.7345 -8.79863e-07 -73.1878 1.185e-06 -9.36795 3.19849 -0.262106 1.89057 -3.30724 -20.7056 -0.988934 -4.16163 -5.04547 -0 -0 41.5724 0.000105993 16.2724 14.7885 4.2608 1.12987e-05 -85.1709 -12.8202 3.10817 -80.471 -0 -0 53.3849 -3.14316e-05 14.3932 6.05034 1.54948 -6.08619e-07 -4.73035 
-40.081 72.469 -0.3119 -179.124 -85.1784 -150.508 0 -0 0 -11.777 7.8546 10.5683 14.8086 -9.4643 -5.26986e-05 55.8332 -11.6696 12.1659 -180 78.9825 -180 -2.63794 3.2212 -0.074201 -13.7249 20.8145 6.62619e-05 -51.5485 23.6567 19.1552 0 -72.6731 0 -9.14415 3.32585 -0.266006 1.63939 -3.13573 -20.5344 -1.1411 -3.64644 -5.54146 -0 -0 42.9687 -4.06891e-06 16.4722 16.8908 4.91043 -3.43832e-05 -83.7791 -12.7686 3.05241 -80.4003 -0 -0 54.8704 -1.61697e-05 14.4922 4.35865 1.12541 4.98187e-07 -4.72586 
-41.18 72.475 -0.381 -179.843 -85.1263 -149.764 0 -0 0 -12.3257 7.67936 10.9518 15.0741 -9.03801 -7.51094e-05 57.2065 -11.1825 11.6122 -180 80.6513 -180 -2.97447 3.29523 -0.0855998 -14.1972 20.1575 9.75747e-05 -51.3748 21.9865 18.5532 1.12318e-06 -72.1065 -8.17614e-07 -8.95601 3.4839 -0.2729 1.3222 -2.92293 -20.1921 -1.26896 -3.26401 -6.15559 -0 -0 44.524 -0.000118766 16.5032 18.9614 5.49896 3.78886e-05 -81.9266 -12.7227 3.03849 -80.1975 -0 -0 56.141 2.12615e-06 14.6335 2.69206 0.702599 -1.67395e-07 -4.89086 
-42.251 72.515 -0.4474 179.807 -85.0524 -149.411 0 -0 0 -12.8156 7.48452 11.3583 15.2723 -8.59531 -2.57782e-05 58.607 -10.5818 11.0813 -180 82.5152 -180 -3.33775 3.36279 -0.0979975 -14.649 19.4898 -2.58914e-07 -51.1942 20.2699 17.9182 -1.11098e-06 -71.4922 1.54349e-06 -8.79536 3.67312 -0.282595 0.95559 -2.66916 -19.6828 -1.36856 -3.02778 -6.89326 -0 -0 46.2205 -1.62034e-05 16.2968 20.9287 5.96188 -1.19118e-05 -79.7118 -12.6753 3.06855 -79.8955 -0 -0 57.2196 -4.54423e-07 14.7989 1.14401 0.302198 -4.14203e-07 -5.17326 
-43.291 72.583 -0.5128 179.831 -84.9883 -149.426 0 -0 0 -13.2509 7.26435 11.7686 15.4084 -8.14527 2.39581e-05 60.0096 -9.88901 10.5906 180 84.544 180 -3.73463 3.41308 -0.111296 -15.0671 18.8226 -6.23066e-05 -51.0198 18.5204 17.2352 -1.06601e-06 -70.8393 1.49894e-06 -8.64672 3.89378 -0.2945 0.55809 -2.37817 -19.0176 -1.43496 -2.94081 -7.75794 -0 -0 48.0434 -0.000198796 15.7772 22.7143 6.22669 8.43852e-06 -77.2639 -12.6249 3.14319 -79.5327 -0 -0 58.1273 3.59643e-07 14.9693 -0.2212 -0.0592008 -7.40261e-10 -5.50798 
-44.299 72.679 -0.5785 -179.807 -84.926 -149.776 0 -0 0 -13.6345 7.01333 12.1669 15.4934 -7.69363 -1.40316e-05 61.3828 -9.13348 10.1518 -180 86.7117 -180 -4.17159 3.43645 -0.125198 -15.4425 18.1562 -3.46764e-05 -50.8617 16.761 16.485 -7.23413e-07 -70.1733 1.02984e-06 -8.48882 4.14748 -0.307895 0.149203 -2.05602 -18.2198 -1.46264 -2.99755 -8.74922 -0 -0 49.9704 -8.75283e-06 14.8834 24.2423 6.22777 2.3285e-06 -74.7341 -12.5702 3.26083 -79.136 -0 -0 58.8918 1.24264e-05 15.1195 -1.37284 -0.370898 2.19156e-07 -5.83171 
